<?xml version="1.0" encoding="utf-8"?>
<svg xmlns="http://www.w3.org/2000/svg" xmlns:xlink="http://www.w3.org/1999/xlink">
	<symbol viewBox="0 0 24 24" id="airballoon" xmlns="http://www.w3.org/2000/svg">
		<path fill="currentcolor" d="M11 23a2 2 0 01-2-2v-2h6v2a2 2 0 01-2 2h-2m1-22c.71 0 1.39.09 2.05.26C15.22 2.83 16 5.71 16 9c0 2.28-.38 4.37-1 7a2 2 0 01-2 2h-2a2 2 0 01-2-2c-.62-2.63-1-4.72-1-7 0-3.29.78-6.17 1.95-7.74C10.61 1.09 11.29 1 12 1m8 7c0 3.18-1.85 7.92-4.54 9.21C16.41 15.39 17 11.83 17 9c0-2.83-.59-5.39-1.54-7.21C18.15 3.08 20 4.82 20 8M4 8c0-3.18 1.85-4.92 4.54-6.21C7.59 3.61 7 6.17 7 9s.59 6.39 1.54 8.21C5.85 15.92 4 11.18 4 8z" />
	</symbol>

	<symbol viewBox="0 0 24 24" id="alien" xmlns="http://www.w3.org/2000/svg">
		<path fill="currentcolor" d="M12 3c4.97 0 9 3.58 9 8s-6 10-9 10-9-5.58-9-10 4.03-8 9-8m-1.69 7.93C9.29 9.29 7.47 8.58 6.25 9.34c-1.22.76-1.38 2.71-.36 4.35 1.03 1.64 2.85 2.35 4.07 1.59 1.22-.78 1.37-2.71.35-4.35m3.38 0c-1.02 1.64-.87 3.57.35 4.35 1.22.76 3.04.05 4.07-1.59 1.02-1.64.86-3.59-.36-4.35-1.22-.76-3.04-.05-4.06 1.59M12 17.75c-2 0-2.5-.75-2.5-.75 0 .03.5 2 2.5 2s2.5-2 2.5-2-.5.75-2.5.75z" />
	</symbol>

	<symbol viewBox="0 0 24 24" id="bug" xmlns="http://www.w3.org/2000/svg">
		<path fill="currentcolor" d="M14 12h-4v-2h4m0 6h-4v-2h4m6-6h-2.81a5.985 5.985 0 00-1.82-1.96L17 4.41 15.59 3l-2.17 2.17a6.002 6.002 0 00-2.83 0L8.41 3 7 4.41l1.62 1.63C7.88 6.55 7.26 7.22 6.81 8H4v2h2.09c-.05.33-.09.66-.09 1v1H4v2h2v1c0 .34.04.67.09 1H4v2h2.81c1.04 1.79 2.97 3 5.19 3s4.15-1.21 5.19-3H20v-2h-2.09c.05-.33.09-.66.09-1v-1h2v-2h-2v-1c0-.34-.04-.67-.09-1H20V8z" />
	</symbol>

	<symbol viewBox="0 0 24 24" id="butterfly" xmlns="http://www.w3.org/2000/svg">
		<path fill="currentcolor" d="M13 21h-2V6L9.03 3.97 10 3l2 2 2-2 1 1-2 2v15M7 6a5.002 5.002 0 00-3 9v2c0 2.21 1.79 4 4 4 .72 0 1.39-.19 1.97-.5l.03-.04V7c-.84-.63-1.87-1-3-1m-.5 6.5L5 11l1.5-1.5L8 11l-1.5 1.5M22 11c0-2.76-2.24-5-5-5-1.12 0-2.15.37-3 1v13.46c.59.35 1.27.54 2 .54 2.21 0 4-1.79 4-4v-2c1.21-.91 2-2.36 2-4m-4.5 1.5L16 11l1.5-1.5L19 11l-1.5 1.5z" />
	</symbol>

	<symbol viewBox="0 0 24 24" id="cake" xmlns="http://www.w3.org/2000/svg">
		<path fill="currentcolor" d="M12 6a2 2 0 002-2c0-.38-.1-.73-.29-1.03L12 0l-1.71 2.97c-.19.3-.29.65-.29 1.03a2 2 0 002 2m4.6 10l-1.07-1.08L14.45 16c-1.3 1.29-3.58 1.3-4.89 0L8.5 14.92 7.4 16a3.467 3.467 0 01-4.4.39V21a1 1 0 001 1h16a1 1 0 001-1v-4.61a3.467 3.467 0 01-4.4-.39M18 9h-5V7h-2v2H6a3 3 0 00-3 3v1.54c0 1.08.88 1.96 1.96 1.96.54 0 1.04-.2 1.38-.57L8.5 12.8l2.11 2.13c.74.74 2.03.74 2.77 0l2.12-2.13 2.15 2.13c.35.37.85.57 1.38.57 1.08 0 1.97-.88 1.97-1.96V12a3 3 0 00-3-3z" />
	</symbol>

	<symbol viewBox="0 0 24 24" id="car" xmlns="http://www.w3.org/2000/svg">
		<path fill="currentcolor" d="M12 8.5H7L4 11H3c-1.11 0-2 .89-2 2v3h2.17c.43 1.2 1.56 2 2.83 2s2.4-.8 2.82-2h6.35c.43 1.2 1.56 2 2.83 2s2.4-.8 2.82-2H23v-1c0-1.11-1.03-1.47-2-2l-9-4.5M5.25 12l2.25-2h4l4 2H5.25M6 13.5A1.5 1.5 0 017.5 15 1.5 1.5 0 016 16.5 1.5 1.5 0 014.5 15 1.5 1.5 0 016 13.5m12 0a1.5 1.5 0 011.5 1.5 1.5 1.5 0 01-1.5 1.5 1.5 1.5 0 01-1.5-1.5 1.5 1.5 0 011.5-1.5z" />
	</symbol>

	<symbol viewBox="0 0 24 24" id="cat" xmlns="http://www.w3.org/2000/svg">
		<path fill="currentcolor" d="M12 8l-1.33.09C9.81 7.07 7.4 4.5 5 4.5c0 0-1.97 2.96-.04 6.91-.55.83-.89 1.26-.96 2.25l-1.93.29.21.98 1.76-.26.14.71-1.57.94.47.89 1.45-.89C5.68 18.76 8.59 20 12 20s6.32-1.24 7.47-3.68l1.45.89.47-.89-1.57-.94.14-.71 1.76.26.21-.98-1.93-.29c-.07-.99-.41-1.42-.96-2.25C20.97 7.46 19 4.5 19 4.5c-2.4 0-4.81 2.57-5.67 3.59L12 8m-3 3a1 1 0 011 1 1 1 0 01-1 1 1 1 0 01-1-1 1 1 0 011-1m6 0a1 1 0 011 1 1 1 0 01-1 1 1 1 0 01-1-1 1 1 0 011-1m-4 3h2l-.7 1.39c.2.64.76 1.11 1.45 1.11a1.5 1.5 0 001.5-1.5h.5a2 2 0 01-2 2c-.75 0-1.4-.41-1.75-1-.35.59-1 1-1.75 1a2 2 0 01-2-2h.5a1.5 1.5 0 001.5 1.5c.69 0 1.25-.47 1.45-1.11L11 14z" />
	</symbol>

	<symbol viewBox="0 0 24 24" id="castle" xmlns="http://www.w3.org/2000/svg">
		<path fill="currentcolor" d="M2 13h2v2h2v-2h2v2h2v-2h2v2h2v-5l3-3V1h2l4 2-4 2v2l3 3v12H11v-3a2 2 0 00-2-2 2 2 0 00-2 2v3H2v-9m16-3c-.55 0-1 .54-1 1.2V13h2v-1.8c0-.66-.45-1.2-1-1.2z" />
	</symbol>

	<symbol viewBox="0 0 24 24" id="cupcake" xmlns="http://www.w3.org/2000/svg">
		<path fill="currentcolor" d="M12 1.5A2.5 2.5 0 0114.5 4 2.5 2.5 0 0112 6.5 2.5 2.5 0 019.5 4 2.5 2.5 0 0112 1.5M15.87 5C18 5 20 7 20 9c2.7 0 2.7 4 0 4H4c-2.7 0-2.7-4 0-4 0-2 2-4 4.13-4 .44 1.73 2.01 3 3.87 3 1.86 0 3.43-1.27 3.87-3M5 15h3l1 7H7l-2-7m5 0h4l-1 7h-2l-1-7m6 0h3l-2 7h-2l1-7z" />
	</symbol>

	<symbol viewBox="0 0 24 24" id="dinosaur" xmlns="http://www.w3.org/2000/svg">
		<path fill="currentcolor" d="M13 2v1h-1v6h-1v1H9v1H8v1H7v1H5v-1H4v-1H3V9H2v6h1v1h1v1h1v1h1v4h2v-1H7v-1h1v-1h1v-1h1v1h1v3h2v-1h-1v-4h1v-1h1v-1h1v-3h1v1h1v-2h-2V9h5V8h-3V7h5V3h-1V2m-7 1h1v1h-1z" />
	</symbol>

	<symbol viewBox="0 0 24 24" id="dog" xmlns="http://www.w3.org/2000/svg">
		<path fill="currentcolor" d="M18 4c-1.71 0-2.75.33-3.35.61C13.88 4.23 13 4 12 4s-1.88.23-2.65.61C8.75 4.33 7.71 4 6 4c-3 0-5 8-5 10 0 .83 1.32 1.59 3.14 1.9.64 2.24 3.66 3.95 7.36 4.1v-4.28c-.59-.37-1.5-1.04-1.5-1.72 0-1 2-1 2-1s2 0 2 1c0 .68-.91 1.35-1.5 1.72V20c3.7-.15 6.72-1.86 7.36-4.1C21.68 15.59 23 14.83 23 14c0-2-2-10-5-10M4.15 13.87c-.5-.12-.89-.26-1.15-.37.25-2.77 2.2-7.1 3.05-7.5.54 0 .95.06 1.32.11-2.1 2.31-2.93 5.93-3.22 7.76M9 12a1 1 0 01-1-1c0-.54.45-1 1-1a1 1 0 011 1c0 .56-.45 1-1 1m6 0a1 1 0 01-1-1c0-.54.45-1 1-1a1 1 0 011 1c0 .56-.45 1-1 1m4.85 1.87c-.29-1.83-1.12-5.45-3.22-7.76.37-.05.78-.11 1.32-.11.85.4 2.8 4.73 3.05 7.5-.25.11-.64.25-1.15.37z" />
	</symbol>

	<symbol viewBox="0 0 24 24" id="duck" xmlns="http://www.w3.org/2000/svg">
		<path fill="currentcolor" d="M8.5 5A1.5 1.5 0 007 6.5 1.5 1.5 0 008.5 8 1.5 1.5 0 0010 6.5 1.5 1.5 0 008.5 5M10 2a5 5 0 015 5c0 1.7-.85 3.2-2.14 4.1 1.58.15 3.36.51 5.14 1.4 3 1.5 4-.5 4-.5s-1 9-7 9H9s-5 0-5-5c0-3 3-4 2-6-4 0-4-3.5-4-3.5 1 .5 2.24.5 3 .15A5.02 5.02 0 0110 2z" />
	</symbol>

	<symbol viewBox="0 0 24 24" id="earth" xmlns="http://www.w3.org/2000/svg">
		<path fill="currentcolor" d="M17.9 17.39c-.26-.8-1.01-1.39-1.9-1.39h-1v-3a1 1 0 00-1-1H8v-2h2a1 1 0 001-1V7h2a2 2 0 002-2v-.41a7.984 7.984 0 012.9 12.8M11 19.93c-3.95-.49-7-3.85-7-7.93 0-.62.08-1.22.21-1.79L9 15v1a2 2 0 002 2m1-16A10 10 0 002 12a10 10 0 0010 10 10 10 0 0010-10A10 10 0 0012 2z" />
	</symbol>

	<symbol viewBox="0 0 24 24" id="egg-easter" xmlns="http://www.w3.org/2000/svg">
		<path fill="currentcolor" d="M6.89,6.36C8.23,3.91 10,2 12,2C14,2 15.77,3.91 17.11,6.36C16.26,6.57 15.5,7.07 15,7.77C13.79,6.11 11.46,5.75 9.8,6.97C9.5,7.19 9.22,7.46 9,7.77C8.5,7.07 7.74,6.57 6.89,6.36M15,18.06L12,15.06L9,18.06L6,15.06L4.73,16.33C5.75,20.35 9.83,22.77 13.84,21.76C16.5,21.08 18.59,19 19.27,16.33L18,15.06L15,18.06M9,15.94L12,12.94L15,15.94L18,12.94L19.5,14.44C19.37,12.13 18.8,9.86 17.81,7.76C16.65,7.86 15.75,8.83 15.75,10H14.25A2.25,2.25 0 0,0 12,7.75A2.25,2.25 0 0,0 9.75,10H8.25C8.25,8.83 7.35,7.86 6.19,7.76C5.2,9.86 4.63,12.13 4.5,14.44L6,12.94L9,15.94Z" />
	</symbol>

	<symbol viewBox="0 0 24 24" id="elephant" xmlns="http://www.w3.org/2000/svg">
		<path fill="currentcolor" d="M19.5 15.5a.5.5 0 01-.5.5.5.5 0 01-.5-.5v-7c0-1.93-2.07-3.5-4-3.5H6a4 4 0 00-4 4v10h4v-4h5v4h4v-4.5a.5.5 0 01.5-.5.5.5 0 01.5.5V16a3 3 0 003 3 3 3 0 003-3v-2h-2.5v1.5z" />
	</symbol>

	<symbol viewBox="0 0 24 24" id="fish" xmlns="http://www.w3.org/2000/svg">
		<path fill="currentcolor" d="M12 20l.76-3c-3.26-.21-6.17-1.6-7.01-3.42-.09.48-.22.92-.42 1.25C4.67 16 3.33 16 2 16c1.1 0 1.5-1.57 1.5-3.5S3.1 9 2 9c1.33 0 2.67 0 3.33 1.17.2.33.33.77.42 1.25.65-1.42 2.57-2.57 4.91-3.1L9 5c2 0 4 0 5.33.67 1.13.56 1.78 1.6 2.36 2.71 2.92.7 5.31 2.28 5.31 4.12 0 1.88-2.5 3.5-5.5 4.16-.83 1.1-1.64 2.12-2.33 2.67-.84.67-1.5.67-2.17.67m5-9a1 1 0 00-1 1 1 1 0 001 1 1 1 0 001-1 1 1 0 00-1-1z" />
	</symbol>

	<symbol viewBox="0 0 24 24" id="fleur-de-lis" xmlns="http://www.w3.org/2000/svg">
		<path fill="currentcolor" d="M12 2S9 4 9 7s2 5 2 9h-1s0-2-1-4c-2-4-6-2-6 1s2 3 2 3c0-3 3.5-3 3.5 0H7v2h3.5L9 20s1 1 2 0l1 2 1-2c1 1 2 0 2 0l-1.5-2H17v-2h-1.5c0-3 3.5-3 3.5 0 0 0 2 0 2-3s-4-5-6-1c-1 2-1 4-1 4h-1c0-4 2-6 2-9s-3-5-3-5z" />
	</symbol>

	<symbol viewBox="0 0 24 24" id="flower" xmlns="http://www.w3.org/2000/svg">
		<path fill="currentcolor" d="M3 13a9 9 0 009 9 9 9 0 00-9-9m9 9a9 9 0 009-9 9 9 0 00-9 9m6-19v5a6 6 0 01-6 6 6 6 0 01-6-6V3c.74 0 1.47.12 2.16.39.55.23 1.04.57 1.45 1L12 2l2.39 2.39c.41-.43.9-.77 1.45-1A5.9 5.9 0 0118 3z" />
	</symbol>

	<symbol viewBox="0 0 24 24" id="ghost" xmlns="http://www.w3.org/2000/svg">
		<path fill="currentcolor" d="M12 2a9 9 0 00-9 9v11l3-3 3 3 3-3 3 3 3-3 3 3V11a9 9 0 00-9-9M9 8a2 2 0 012 2 2 2 0 01-2 2 2 2 0 01-2-2 2 2 0 012-2m6 0a2 2 0 012 2 2 2 0 01-2 2 2 2 0 01-2-2 2 2 0 012-2z" />
	</symbol>

	<symbol viewBox="0 0 24 24" id="guitar" xmlns="http://www.w3.org/2000/svg">
		<path fill="currentcolor" d="M19.59 3H22v2h-1.59l-4.24 4.24c-.37-.56-.85-1.04-1.41-1.41L19.59 3M12 8a4 4 0 014 4 3.99 3.99 0 01-3 3.87V16a5 5 0 01-5 5 5 5 0 01-5-5 5 5 0 015-5h.13c.45-1.76 2.04-3 3.87-3m0 2.5a1.5 1.5 0 00-1.5 1.5 1.5 1.5 0 001.5 1.5 1.5 1.5 0 001.5-1.5 1.5 1.5 0 00-1.5-1.5m-5.06 3.74l-.71.7 2.83 2.83.71-.71-2.83-2.82z" />
	</symbol>

	<symbol viewBox="0 0 24 24" id="horse" xmlns="http://www.w3.org/2000/svg">
		<path fill="currentcolor" d="M22 6v3.5l-1.5.5-1.54-2.46c-.13-.21-.46-.12-.46.13v3.58c0 .98-.39 1.86-1 2.53V21H15v-6h-.25c-.21 0-.42-.03-.62-.06l-4.44-.74-1.12 2.01.96 4.79H7l-1-4.75c-.03-.3 0-.6.16-.86l1.02-1.81a3.272 3.272 0 01-1.68-2.77c-.04.15-.06.37-.03.69.03.44.14 1.09.07 1.81-.04.72-.37 1.46-.79 1.95-.43.49-.9.83-1.4 1.09l-.7-.7c.19-.47.38-.89.42-1.28.06-.37-.01-.67-.12-.94l-.53-1.13c-.21-.51-.47-1.25-.42-2.12.03-.85.5-1.96 1.39-2.57.9-.61 1.87-.69 2.66-.53.5.1 1.01.34 1.45.68.37-.17.8-.26 1.25-.26h5.75V7c0-2.21 1.79-4 4-4H22l-.89 1.34c.54.36.89.97.89 1.66z" />
	</symbol>

	<symbol viewBox="0 0 24 24" id="ice-cream" xmlns="http://www.w3.org/2000/svg">
		<path fill="currentcolor" d="M17.5 6.05C17.25 3.22 14.89 1 12 1S6.75 3.22 6.5 6.05C5.09 6.28 4 7.5 4 9c0 1.66 1.34 3 3 3l5 10 5-10c1.66 0 3-1.34 3-3 0-1.5-1.09-2.72-2.5-2.95M12 17.53l-3.11-6.22c.06-.05.11-.1.19-.15a5.503 5.503 0 005.84 0c.08.05.13.1.19.15L12 17.53z" />
	</symbol>

	<symbol viewBox="0 0 24 24" id="kangaroo" xmlns="http://www.w3.org/2000/svg">
		<path fill="currentcolor" d="M19.8 6.59L19 7.97v2.07l-1.31 1.57-.38 1.64L16 14l-.5-.88.94-.53.26-1.14.07-.3.7-.84c.18-.21.15-.53-.06-.7a.506.506 0 00-.71.06l-.85 1.02-.29 1.24c-.18.03-.36.07-.56.07-.69 0-1.32-.24-1.77-.6-.08 1.3-.5 2.41-1.1 3.03l-1.63 1.76-.54 3.6L8.07 21l-.54-.83 1.51-.98.46-3.27v-.01l.5-1.37c-.53-.46-.92-1.26-1.12-2.24l-.17.31c-.36.64-.71 1.29-1.15 1.95-.45.64-.9 1.34-1.78 1.88-.44.28-1.08.4-1.61.29-.56-.12-1.03-.47-1.31-.84-.55-.76-.71-1.54-.86-2.27l.97-.26c.23.64.53 1.29.91 1.64.38.33.69.26.96 0 .32-.27.63-.85.89-1.45.27-.61.49-1.27.72-1.95.48-1.36.94-2.78 1.75-4.24.42-.72.93-1.47 1.72-2.14C10.7 4.55 11.73 4 13 4s2.7 1.22 3.58 2.34c.42.55 1.29.48 1.64-.13l.92-1.58a.929.929 0 01-.35-.23.984.984 0 010-1.4l1.14 1.13c.03 0 .07-.02.07-.02a1 1 0 01.91.58L22 7l-1 .5-1.2-.91z" />
	</symbol>

	<symbol viewBox="0 0 24 24" id="lighthouse" xmlns="http://www.w3.org/2000/svg">
		<path fill="currentcolor" d="M8 10V8h1V4H8V3l4-2 4 2v1h-1v4h1v2h-1.26l-6.3 3.64L9 10H8m5-2V4h-2v4h2M7 23l.04-.24 9.11-5.26.52 3.38L13 23H7m1.05-6.83L15.31 12l.52 3.37-8.4 4.85.62-4.05z" />
	</symbol>

	<symbol viewBox="0 0 24 24" id="lightning-bolt" xmlns="http://www.w3.org/2000/svg">
		<path fill="currentcolor" d="M11 15H6l7-14v8h5l-7 14v-8z" />
	</symbol>

	<symbol viewBox="0 0 24 24" id="medal" xmlns="http://www.w3.org/2000/svg">
		<path fill="currentcolor" d="M20 2H4v2l5.81 4.36a7.004 7.004 0 00-4.46 8.84 6.996 6.996 0 008.84 4.46 7 7 0 000-13.3L20 4V2m-5.06 17.5L12 17.78 9.06 19.5l.78-3.33-2.59-2.24 3.41-.29L12 10.5l1.34 3.14 3.41.29-2.59 2.24.78 3.33z" />
	</symbol>

	<symbol viewBox="0 0 24 24" id="owl" xmlns="http://www.w3.org/2000/svg">
		<path fill="currentcolor" d="M12 16c.56.84 1.31 1.53 2.2 2L12 20.2 9.8 18c.89-.47 1.65-1.16 2.2-2m5-4.8a2 2 0 00-2 2 2 2 0 002 2 2 2 0 002-2 2 2 0 00-2-2m-10 0a2 2 0 00-2 2 2 2 0 002 2 2 2 0 002-2 2 2 0 00-2-2m10-2.5a4 4 0 014 4 4 4 0 01-4 4 4 4 0 01-4-4 4 4 0 014-4m-10 0a4 4 0 014 4 4 4 0 01-4 4 4 4 0 01-4-4 4 4 0 014-4M2.24 1c1.76 3.7.49 6.46-.69 9.2-.36.8-.55 1.63-.55 2.5a6 6 0 006 6c.21-.01.42-.02.63-.05l2.96 2.96L12 23l1.41-1.39 2.96-2.96c.21.03.42.04.63.05a6 6 0 006-6c0-.87-.19-1.7-.55-2.5C21.27 7.46 20 4.7 21.76 1c-2.64 2.06-6.4 3.69-9.76 3.7C8.64 4.69 4.88 3.06 2.24 1z" />
	</symbol>

	<symbol viewBox="0 0 24 24" id="panda" xmlns="http://www.w3.org/2000/svg">
		<path fill="currentcolor" d="M12 3c1.74 0 3.36.5 4.74 1.35C17.38 3.53 18.38 3 19.5 3A3.5 3.5 0 0123 6.5c0 1.5-.95 2.78-2.28 3.28.18.72.28 1.45.28 2.22a9 9 0 01-9 9 9 9 0 01-9-9c0-.77.1-1.5.28-2.22A3.51 3.51 0 011 6.5 3.5 3.5 0 014.5 3c1.12 0 2.12.53 2.76 1.35C8.64 3.5 10.26 3 12 3m0 2a7 7 0 00-7 7 7 7 0 007 7 7 7 0 007-7 7 7 0 00-7-7m4.19 5.3c.36 1.33-.11 2.61-1.04 2.86-.94.26-1.98-.62-2.34-1.96-.36-1.33.11-2.61 1.04-2.86.94-.25 1.98.62 2.34 1.96m-8.38 0c.36-1.34 1.4-2.21 2.34-1.96.93.25 1.4 1.53 1.04 2.86-.36 1.34-1.4 2.22-2.34 1.96-.93-.25-1.4-1.53-1.04-2.86M12 14c.6 0 1.13.19 1.5.5l-1 1c0 .42.34.75.75.75a.75.75 0 00.75-.75.5.5 0 01.5-.5.5.5 0 01.5.5 1.75 1.75 0 01-1.75 1.75c-.49 0-.93-.2-1.25-.53-.32.33-.76.53-1.25.53A1.75 1.75 0 019 15.5a.5.5 0 01.5-.5.5.5 0 01.5.5.75.75 0 00.75.75.75.75 0 00.75-.75l-1-1c.37-.31.9-.5 1.5-.5z" />
	</symbol>

	<symbol viewBox="0 0 24 24" id="penguin" xmlns="http://www.w3.org/2000/svg">
		<path fill="currentcolor" d="M19 16c0 1.72-.63 3.3-1.66 4.5.41.39.66.91.66 1.5H6c0-.59.25-1.11.66-1.5A6.902 6.902 0 015 16H3c0-1.25.57-2.36 1.46-3.09l.01-.02A6.004 6.004 0 007 8V7a5 5 0 015-5 5 5 0 015 5v1c0 2 1 3.81 2.53 4.89l.01.02c.89.73 1.46 1.84 1.46 3.09h-2m-3 0a4 4 0 00-4-4 4 4 0 00-4 4 4 4 0 004 4 4 4 0 004-4m-6-7l2 1.5L14 9l-2-1.5L10 9m0-4a1 1 0 00-1 1 1 1 0 001 1 1 1 0 001-1 1 1 0 00-1-1m4 0a1 1 0 00-1 1 1 1 0 001 1 1 1 0 001-1 1 1 0 00-1-1z" />
	</symbol>

	<symbol viewBox="0 0 24 24" id="pig" xmlns="http://www.w3.org/2000/svg">
		<path fill="currentcolor" d="M9.5 9A1.5 1.5 0 008 10.5 1.5 1.5 0 009.5 12a1.5 1.5 0 001.5-1.5A1.5 1.5 0 009.5 9m5 0a1.5 1.5 0 00-1.5 1.5 1.5 1.5 0 001.5 1.5 1.5 1.5 0 001.5-1.5A1.5 1.5 0 0014.5 9M12 4l.68.03c.94-.79 2.14-1.44 3.04-1.68 1.87-.5 5.16-.12 5.59 1.48.31 1.17-.71 2.62-2.28 3.55A8.97 8.97 0 0121 13a9 9 0 01-9 9 9 9 0 01-9-9c0-2.13.74-4.08 1.97-5.62C3.4 6.45 2.38 5 2.69 3.83c.43-1.6 3.72-1.98 5.59-1.48.9.24 2.1.89 3.04 1.68L12 4m-2 12a1 1 0 011 1 1 1 0 01-1 1 1 1 0 01-1-1 1 1 0 011-1m4 0a1 1 0 011 1 1 1 0 01-1 1 1 1 0 01-1-1 1 1 0 011-1m-2-3c-2.76 0-5 2.34-5 4 0 1.66 2.24 3 5 3s5-1.34 5-3-2.24-4-5-4M7.76 4.28c-.45-.12-3.17.07-3.17.07S6.8 6.1 7.24 6.22c.45.12 2.53.21 2.67-.32.15-.54-1.71-1.5-2.15-1.62m8.48 0c-.44.12-2.3 1.08-2.15 1.62.14.53 2.22.44 2.67.32.44-.12 2.65-1.87 2.65-1.87s-2.72-.19-3.17-.07z" />
	</symbol>

	<symbol viewBox="0 0 24 24" id="pirate" xmlns="http://www.w3.org/2000/svg">
		<path fill="currentcolor" d="M8.2 12.1c-.3.2-.5.6-.4.9 0 .7.7 1.2 1.3 1.2.6 0 1.2-.5 1.2-1.2-.6-.4-1.3-.7-2.1-.9M22 11l1-4s-2 0-5-2-3-4-6-4-3 2-6 4-5 2-5 2l1 4h.1c-.1.3-.1.7-.1 1 0 3.5 1.8 6.6 4.5 8.4l-.5.9c6.4 4.1 12 0 12 0l-.5-.9c2.7-1.8 4.5-4.9 4.5-8.4v-1M11.3 4.5L9.9 3.1l.7-.7L12 3.8l1.4-1.4.7.7-1.4 1.4 1.4 1.4-.7.7L12 5.2l-1.4 1.4-.7-.7 1.4-1.4m-2 4c1-.3 2-.5 2.7-.5 2.2 0 5.9 1.6 7.8 2.4.1.3.1.6.1.9L9.3 8.5m4.3 10.6c-.7.4-1.4.7-2.2.8-.5-.4-.5-1.2 0-1.6.4-.4 1.3-.6 1.8-.1.3.1.4.6.4.9m6.4-5.7c-.5 2.1-1.8 4-3.5 5.2L15 16H9l-1.5 2.6C5.4 17.2 4 14.8 4 12c0-.5.1-1 .2-1.5.5-.2 1.1-.5 1.8-.8l7.1 1.9V14c0 .5.4 1 1 1h2c.5 0 1-.4 1-1v-1.4l2.9.8z" />
	</symbol>

	<symbol viewBox="0 0 24 24" id="pine-tree" xmlns="http://www.w3.org/2000/svg">
		<path fill="currentcolor" d="M10 21v-3H3l5-5H5l5-5H7l5-5 5 5h-3l5 5h-3l5 5h-7v3h-4z" />
	</symbol>

	<symbol viewBox="0 0 24 24" id="rabbit" xmlns="http://www.w3.org/2000/svg">
		<path fill="currentcolor" d="M18.05 21l-2.73-4.74c0-1.73-1.07-2.84-2.37-2.84-.9 0-1.68.5-2.08 1.24.33-.19.72-.29 1.13-.29 1.3 0 2.36 1.06 2.36 2.36 0 1.31-1.05 2.38-2.36 2.38h3.3V21H6.79c-.24 0-.49-.09-.67-.28a.948.948 0 010-1.34l.5-.5c-.34-.15-.62-.38-.9-.62-.22.5-.72.85-1.3.85a1.425 1.425 0 010-2.85l.47.08v-1.97a4.73 4.73 0 014.74-4.74h.02c2.12.01 3.77.84 3.77-.47 0-.93.2-1.3.54-1.82-.73-.34-1.56-.55-2.43-.55-.53 0-.95-.42-.95-.95 0-.43.28-.79.67-.91l-.67-.04c-.52 0-.95-.42-.95-.94 0-.53.43-.95.95-.95h.95c2.1 0 3.94 1.15 4.93 2.85l.28-.01c.71 0 1.37.23 1.91.61l.45.38c2.17 1.95 1.9 3.27 1.9 3.28 0 1.28-1.06 2.33-2.35 2.33l-.49-.05v.08c0 1.11-.48 2.1-1.23 2.8L20.24 21h-2.19m.11-13.26c-.53 0-.95.42-.95.94 0 .53.42.95.95.95.52 0 .95-.42.95-.95 0-.52-.43-.94-.95-.94z" />
	</symbol>

	<symbol viewBox="0 0 24 24" id="rocket" xmlns="http://www.w3.org/2000/svg">
		<path fill="currentcolor" d="M20 22l-3.86-1.55c.7-1.53 1.2-3.11 1.51-4.72L20 22M7.86 20.45L4 22l2.35-6.27c.31 1.61.81 3.19 1.51 4.72M12 2s5 2 5 10c0 3.1-.75 5.75-1.67 7.83A2 2 0 0113.5 21h-3a2 2 0 01-1.83-1.17C7.76 17.75 7 15.1 7 12c0-8 5-10 5-10m0 10c1.1 0 2-.9 2-2s-.9-2-2-2-2 .9-2 2 .9 2 2 2z" />
	</symbol>

	<symbol viewBox="0 0 24 24" id="rodent" xmlns="http://www.w3.org/2000/svg">
		<path fill="currentcolor" d="M21.33 17.39c1.4 1.27.47 3.61-1.41 3.61h-8.86A5.04 5.04 0 016 15.94v-.05c-2.3-.47-4-2.48-4-4.89 0-2.75 2.22-5 5-5h2.5c.3 0 .5-.23.5-.5S9.8 5 9.5 5H7V3h2.5C10.88 3 12 4.13 12 5.5 12 6.89 10.88 8 9.5 8H7c-1.66 0-3 1.33-3 3 0 1.37.92 2.5 2.14 2.87.56-2.2 2.53-3.87 4.92-3.87.8 0 1.6.22 2.3.55-1.41.79-2.36 2.25-2.36 3.95 0 1.25.5 2.37 1.33 3.17l.7-.7c-.65-.61-1.03-1.5-1.03-2.47 0-2.59 2.34-3.5 3.5-3.5 2.08 0 3.95 1.89 3.44 4.23l2.39 2.16M18 19c.56 0 1-.44 1-1s-.44-1-1-1-1 .44-1 1 .44 1 1 1z" />
	</symbol>

	<symbol viewBox="0 0 24 24" id="sheep" xmlns="http://www.w3.org/2000/svg">
		<path fill="currentcolor" d="M20 8.5a2.5 2.5 0 01-2.5 2.5c-1.08 0-2-.69-2.34-1.64-.44.39-1.02.64-1.66.64-.56 0-1.08-.19-1.5-.5-.42.31-.93.5-1.5.5-.64 0-1.22-.25-1.66-.64C8.5 10.31 7.58 11 6.5 11A2.5 2.5 0 014 8.5c0-1.24.91-2.27 2.1-2.46-.06-.17-.1-.35-.1-.54A1.5 1.5 0 017.5 4c.2 0 .39.04.56.11C8.23 3.47 8.81 3 9.5 3c.25 0 .5.07.68.17C10.5 2.5 11.19 2 12 2s1.5.5 1.82 1.17c.18-.1.43-.17.68-.17.69 0 1.27.47 1.44 1.11.17-.07.36-.11.56-.11A1.5 1.5 0 0118 5.5c0 .19-.04.37-.1.54 1.19.19 2.1 1.22 2.1 2.46M10 12a1 1 0 00-1 1 1 1 0 001 1 1 1 0 001-1 1 1 0 00-1-1m4 0a1 1 0 00-1 1 1 1 0 001 1 1 1 0 001-1 1 1 0 00-1-1m6.23-1.34c-.64.81-1.62 1.34-2.73 1.34-.45 0-.88-.1-1.29-.27-.01 2.55-.38 5.63-1.76 7.22-.52.59-1.15.91-1.95 1.01V18h-1v1.96c-.8-.1-1.43-.41-1.95-1.01-1.39-1.6-1.76-4.66-1.77-7.21-.4.16-.83.26-1.28.26-1.11 0-2.09-.53-2.73-1.34C2.88 11.55 2 12 2 12s1 2 3 2c.36 0 .64-.04.88-.09C6.22 17.73 7.58 22 12 22s5.78-4.27 6.12-8.09c.24.05.52.09.88.09 2 0 3-2 3-2s-.88-.45-1.77-1.34z" />
	</symbol>

	<symbol viewBox="0 0 24 24" id="ship-wheel" xmlns="http://www.w3.org/2000/svg">
		<path fill="currentcolor" d="M2 11l2.05.1a7.96 7.96 0 013.2-5.54L6.13 3.84c-.27-.48-.13-1.09.37-1.37.5-.27 1.09-.11 1.37.37l.93 1.82a8.102 8.102 0 016.4 0l.93-1.82c.28-.48.87-.64 1.37-.37.5.28.64.89.37 1.37l-1.12 1.72a7.96 7.96 0 013.2 5.54L22 11a1 1 0 011 1 1 1 0 01-1 1l-2.05-.1a7.96 7.96 0 01-3.2 5.54l1.12 1.72c.27.48.13 1.09-.37 1.37-.5.27-1.09.11-1.37-.37l-.93-1.82a8.102 8.102 0 01-6.4 0l-.93 1.82c-.28.48-.87.64-1.37.37-.5-.28-.64-.89-.37-1.37l1.12-1.72a7.96 7.96 0 01-3.2-5.54L2 13a1 1 0 01-1-1 1 1 0 011-1m7.07.35c.13-.61.46-1.15.93-1.56L8.34 7.25a5.993 5.993 0 00-2.29 3.95l3.02.15M12 9c.32 0 .62.05.9.14l1.38-2.69C13.58 6.16 12.81 6 12 6c-.81 0-1.58.16-2.28.45l1.38 2.69c.28-.09.58-.14.9-.14m2.93 2.35l3.02-.15a5.993 5.993 0 00-2.29-3.95L14 9.79c.47.41.8.95.93 1.56m0 1.3c-.13.61-.46 1.15-.93 1.56l1.66 2.54a5.993 5.993 0 002.29-3.95l-3.02-.15M12 15c-.32 0-.62-.05-.91-.14l-1.37 2.69c.7.29 1.47.45 2.28.45.81 0 1.58-.16 2.28-.45l-1.37-2.69c-.29.09-.59.14-.91.14m-2.93-2.35l-3.02.15c.22 1.6 1.06 3.01 2.29 3.95L10 14.21c-.47-.41-.8-.95-.93-1.56z" />
	</symbol>

	<symbol viewBox="0 0 24 24" id="snail" xmlns="http://www.w3.org/2000/svg">
		<path fill="currentcolor" d="M20.31 8.03l.93-3.08c.43-.1.76-.48.76-.95 0-.55-.45-1-1-1s-1 .45-1 1c0 .26.11.5.27.68l-.77 2.58-.77-2.58c.16-.18.27-.42.27-.68 0-.55-.45-1-1-1s-1 .45-1 1c0 .47.33.85.76.95l.93 3.08C17.73 8.18 17 9 17 10v2.25C15.65 9.16 12.63 7 9.11 7 5.19 7 2 10.26 2 14.26c0 1.84.82 3.49 2.1 4.59L2.88 19A1.003 1.003 0 003 21h16.12c1.04 0 1.88-.84 1.88-1.88v-7.4c.6-.34 1-.98 1-1.72 0-1-.73-1.82-1.69-1.97m-4.71 9.38l-3.53.45c.43-.76.73-1.65.73-2.6 0-2.32-1.85-4.2-4.13-4.2-.53 0-1.05.12-1.53.35-.49.25-.7.85-.45 1.34a1 1 0 001.34.46c.2-.1.42-.15.64-.15 1.18 0 2.13.98 2.13 2.2 0 1.66-1.3 3.01-2.91 3.01-2.14 0-3.89-1.8-3.89-4.01C4 11.36 6.29 9 9.11 9c3.66 0 6.64 3.06 6.64 6.82 0 .54-.06 1.07-.15 1.59z" />
	</symbol>

	<symbol viewBox="0 0 24 24" id="snake" xmlns="http://www.w3.org/2000/svg">
		<path fill="currentcolor" d="M19.5 17H18c1.1 0 2-.9 2-2s-.9-2-2-2V9c0-1 0-2-1.08-2.86.05-.21.08-.42.08-.64C17 3.57 15 2 12.5 2c-2.26 0-4.12 1.31-4.43 3H6L3.71 2.79 3 3.5l2 2-2 2 .71.71L6 6h2.07c.31 1.69 2.17 3 4.43 3 .5 0 1-.08 1.43-.2.04.07.07.14.07.2v4H8c-1.1 0-2 .9-2 2s.9 2 2 2H6.5A2.5 2.5 0 004 19.5c0 .17 0 .34.05.5H4c-1.1 0-2 .9-2 2h17.5a2.5 2.5 0 000-5M12 5c-.55 0-1-.45-1-1s.45-1 1-1 1 .45 1 1-.45 1-1 1z" />
	</symbol>

	<symbol viewBox="0 0 24 24" id="spider" xmlns="http://www.w3.org/2000/svg">
		<path fill="currentcolor" d="M21.29 16.71l1.42-1.42-3.21-3.18-3-.85 1.91-.26 4.19-3.2-1.2-1.6-3.81 2.85-2.68.45 3.2-3.19L17 1.76l-2 .48.86 3.45-1.1 1.14a3 3 0 00-5.52 0L8.11 5.69 9 2.24l-2-.48-1.11 4.55 3.2 3.19-2.69-.45L2.6 6.2 1.4 7.8 5.6 11l1.86.31-3 .85-3.17 3.13 1.42 1.42 2.79-2.82 2.37-.67L4 16.54V22h2v-4.54l1.56-1.34a4.5 4.5 0 008.88 0L18 17.46V22h2v-5.46l-3.87-3.32 2.37.67z" />
	</symbol>

	<symbol viewBox="0 0 24 24" id="space-invaders" xmlns="http://www.w3.org/2000/svg">
		<path fill="currentcolor" d="M7 6H5V4h2v2m10 0h2V4h-2v2m6 6v6h-2v-4h-2v4h-2v-2H7v2H5v-4H3v4H1v-6h2v-2h2V8h2V6h2v2h6V6h2v2h2v2h2v2h2m-8-2v2h2v-2h-2m-8 2h2v-2H7v2m4 6H7v2h4v-2m6 0h-4v2h4v-2z" />
	</symbol>

	<symbol viewBox="0 0 24 24" id="sparkles" xmlns="http://www.w3.org/2000/svg">
		<path fill="currentcolor" d="M10.6 9.6L9 15 7.4 9.6 2 8l5.4-1.6L9 1l1.6 5.4L16 8l-5.4 1.6m6.4 4.6l4-2.2-2.2 4 2.2 4-4-2.2-4 2.2 2.2-4-2.2-4 4 2.2M10 16l-1.7 3 1.7 3-3-1.7L4 22l1.7-3L4 16l3 1.7 3-1.7" />
	</symbol>

	<symbol viewBox="0 0 24 24" id="trophy" xmlns="http://www.w3.org/2000/svg">
		<path fill="currentcolor" d="M18 2c-.9 0-2 1-2 2H8c0-1-1.1-2-2-2H2v9c0 1 1 2 2 2h2.2c.4 2 1.7 3.7 4.8 4v2.08C8 19.54 8 22 8 22h8s0-2.46-3-2.92V17c3.1-.3 4.4-2 4.8-4H20c1 0 2-1 2-2V2h-4M6 11H4V4h2v7m14 0h-2V4h2v7z" />
	</symbol>

	<symbol viewBox="0 0 24 24" id="truck" xmlns="http://www.w3.org/2000/svg">
		<path fill="currentcolor" d="M18 18.5a1.5 1.5 0 01-1.5-1.5 1.5 1.5 0 011.5-1.5 1.5 1.5 0 011.5 1.5 1.5 1.5 0 01-1.5 1.5m1.5-9l1.96 2.5H17V9.5m-11 9A1.5 1.5 0 014.5 17 1.5 1.5 0 016 15.5 1.5 1.5 0 017.5 17 1.5 1.5 0 016 18.5M20 8h-3V4H3c-1.11 0-2 .89-2 2v11h2a3 3 0 003 3 3 3 0 003-3h6a3 3 0 003 3 3 3 0 003-3h2v-5l-3-4z" />
	</symbol>

	<symbol viewBox="0 0 24 24" id="yin-yang" xmlns="http://www.w3.org/2000/svg">
		<path fill="currentcolor" d="M12 2a10 10 0 0110 10 10 10 0 01-10 10A10 10 0 012 12 10 10 0 0112 2m0 2a8 8 0 00-8 8 8 8 0 008 8 4 4 0 01-4-4 4 4 0 014-4 4 4 0 004-4 4 4 0 00-4-4m0 2.5A1.5 1.5 0 0113.5 8 1.5 1.5 0 0112 9.5 1.5 1.5 0 0110.5 8 1.5 1.5 0 0112 6.5m0 8a1.5 1.5 0 00-1.5 1.5 1.5 1.5 0 001.5 1.5 1.5 1.5 0 001.5-1.5 1.5 1.5 0 00-1.5-1.5z" />
	</symbol>
</svg>
