<?xml version="1.0" standalone="no"?>
<!DOCTYPE svg PUBLIC "-//W3C//DTD SVG 20010904//EN"
 "http://www.w3.org/TR/2001/REC-SVG-20010904/DTD/svg10.dtd">
<svg version="1.0" xmlns="http://www.w3.org/2000/svg"
 width="700.000000pt" height="700.000000pt" viewBox="0 0 700.000000 700.000000"
 preserveAspectRatio="xMidYMid meet">
<metadata>
Created by potrace 1.11, written by Peter Selinger 2001-2013
</metadata>
<g transform="translate(0.000000,700.000000) scale(0.100000,-0.100000)"
fill="#000000" stroke="none">
<path d="M3238 6345 c-1 -1 -23 -5 -48 -9 -48 -6 -102 -19 -135 -31 -28 -11
-353 -144 -390 -160 -105 -44 -159 -67 -230 -95 -44 -18 -99 -41 -123 -51 -24
-11 -76 -33 -115 -48 -74 -30 -989 -409 -1223 -507 -73 -30 -151 -68 -175 -83
-147 -94 -251 -269 -265 -444 -5 -63 -1 -105 20 -204 5 -22 166 -414 395 -963
34 -79 61 -150 61 -157 0 -7 5 -13 10 -13 6 0 10 -6 10 -13 0 -8 59 -155 130
-328 137 -329 136 -327 168 -399 11 -25 36 -88 57 -140 21 -52 46 -113 56
-136 10 -22 28 -65 39 -95 12 -30 28 -67 35 -84 8 -16 70 -165 138 -330 420
-1015 396 -960 451 -1030 168 -214 453 -280 711 -165 22 10 222 93 445 185
223 92 464 192 535 222 72 30 135 56 140 57 6 1 15 4 20 8 6 3 60 26 120 51
420 171 877 363 915 384 71 41 129 92 176 156 43 58 57 84 88 160 36 90 41
242 11 362 -7 26 -131 334 -170 420 -7 17 -36 86 -65 155 -29 69 -58 139 -65
155 -8 17 -88 208 -178 425 -357 855 -579 1386 -593 1414 -8 16 -14 33 -14 37
0 5 -11 32 -24 61 -13 29 -47 107 -74 173 -336 807 -342 818 -431 903 -82 77
-203 135 -309 147 -31 4 -67 8 -79 10 -12 2 -23 2 -25 0z"/>
<path d="M4290 6340 c-5 -3 40 -122 100 -265 135 -327 363 -877 492 -1190 54
-132 107 -260 118 -285 23 -53 204 -493 246 -597 16 -40 31 -73 34 -73 3 0 5
426 4 948 0 726 -3 961 -13 1007 -23 107 -75 200 -160 284 -96 96 -196 148
-321 167 -52 8 -488 11 -500 4z"/>
<path d="M5870 4581 c0 -721 2 -1311 4 -1311 2 0 11 21 21 48 10 26 26 65 35
87 27 62 96 228 270 650 89 215 167 404 175 420 18 41 127 305 180 437 24 59
46 119 49 135 4 15 9 39 11 53 11 50 5 177 -10 233 -36 136 -124 263 -237 340
-43 29 -395 186 -478 212 l-20 6 0 -1310z"/>
</g>
</svg>
